<mxfile host="app.diagrams.net" modified="2023-10-13T01:00:58.344Z" agent="Mozilla/5.0 (Windows NT 10.0; Win64; x64) AppleWebKit/537.36 (KHTML, like Gecko) Chrome/117.0.0.0 Safari/537.36 Edg/117.0.2045.60" etag="MzGraK5F6Kwky1hRT-vP" version="22.0.4" type="device">
  <diagram name="Página-1" id="8nkQvzzb3Tsqb88bHL7T">
    <mxGraphModel dx="1042" dy="569" grid="1" gridSize="10" guides="1" tooltips="1" connect="1" arrows="1" fold="1" page="1" pageScale="1" pageWidth="827" pageHeight="1169" math="0" shadow="0">
      <root>
        <mxCell id="0" />
        <mxCell id="1" parent="0" />
        <mxCell id="0RduwKie-26nk1PEfK_B-19" style="edgeStyle=orthogonalEdgeStyle;rounded=0;orthogonalLoop=1;jettySize=auto;html=1;exitX=0.5;exitY=1;exitDx=0;exitDy=0;" edge="1" parent="1" source="jOPskWcx7O11U2c9EAm4-1" target="0RduwKie-26nk1PEfK_B-3">
          <mxGeometry relative="1" as="geometry" />
        </mxCell>
        <mxCell id="jOPskWcx7O11U2c9EAm4-1" value="inicio" style="ellipse;whiteSpace=wrap;html=1;" parent="1" vertex="1">
          <mxGeometry x="330" y="30" width="120" height="80" as="geometry" />
        </mxCell>
        <mxCell id="0RduwKie-26nk1PEfK_B-16" style="edgeStyle=orthogonalEdgeStyle;rounded=0;orthogonalLoop=1;jettySize=auto;html=1;exitX=0.5;exitY=1;exitDx=0;exitDy=0;" edge="1" parent="1" source="0RduwKie-26nk1PEfK_B-1" target="0RduwKie-26nk1PEfK_B-4">
          <mxGeometry relative="1" as="geometry" />
        </mxCell>
        <mxCell id="0RduwKie-26nk1PEfK_B-1" value="button; função para confirmar entrada" style="rounded=0;whiteSpace=wrap;html=1;" vertex="1" parent="1">
          <mxGeometry x="330" y="290" width="120" height="60" as="geometry" />
        </mxCell>
        <mxCell id="0RduwKie-26nk1PEfK_B-17" style="edgeStyle=orthogonalEdgeStyle;rounded=0;orthogonalLoop=1;jettySize=auto;html=1;exitX=0.5;exitY=1;exitDx=0;exitDy=0;entryX=0.5;entryY=0;entryDx=0;entryDy=0;" edge="1" parent="1" source="0RduwKie-26nk1PEfK_B-2" target="0RduwKie-26nk1PEfK_B-1">
          <mxGeometry relative="1" as="geometry" />
        </mxCell>
        <mxCell id="0RduwKie-26nk1PEfK_B-2" value="input; digitar um numero" style="rounded=0;whiteSpace=wrap;html=1;" vertex="1" parent="1">
          <mxGeometry x="330" y="210" width="120" height="60" as="geometry" />
        </mxCell>
        <mxCell id="0RduwKie-26nk1PEfK_B-18" style="edgeStyle=orthogonalEdgeStyle;rounded=0;orthogonalLoop=1;jettySize=auto;html=1;exitX=0.5;exitY=1;exitDx=0;exitDy=0;entryX=0.5;entryY=0;entryDx=0;entryDy=0;" edge="1" parent="1" source="0RduwKie-26nk1PEfK_B-3" target="0RduwKie-26nk1PEfK_B-2">
          <mxGeometry relative="1" as="geometry" />
        </mxCell>
        <mxCell id="0RduwKie-26nk1PEfK_B-3" value="div; demarcar local onde o conteudo vai aparecer" style="rounded=0;whiteSpace=wrap;html=1;" vertex="1" parent="1">
          <mxGeometry x="330" y="130" width="120" height="60" as="geometry" />
        </mxCell>
        <mxCell id="0RduwKie-26nk1PEfK_B-15" style="edgeStyle=orthogonalEdgeStyle;rounded=0;orthogonalLoop=1;jettySize=auto;html=1;exitX=0.5;exitY=1;exitDx=0;exitDy=0;entryX=0.5;entryY=0;entryDx=0;entryDy=0;" edge="1" parent="1" source="0RduwKie-26nk1PEfK_B-4" target="0RduwKie-26nk1PEfK_B-5">
          <mxGeometry relative="1" as="geometry" />
        </mxCell>
        <mxCell id="0RduwKie-26nk1PEfK_B-4" value="Obter o valor digitado pelo usuário" style="rounded=0;whiteSpace=wrap;html=1;" vertex="1" parent="1">
          <mxGeometry x="330" y="370" width="120" height="60" as="geometry" />
        </mxCell>
        <mxCell id="0RduwKie-26nk1PEfK_B-22" style="edgeStyle=orthogonalEdgeStyle;rounded=0;orthogonalLoop=1;jettySize=auto;html=1;exitX=0.5;exitY=1;exitDx=0;exitDy=0;" edge="1" parent="1" source="0RduwKie-26nk1PEfK_B-5" target="0RduwKie-26nk1PEfK_B-6">
          <mxGeometry relative="1" as="geometry" />
        </mxCell>
        <mxCell id="0RduwKie-26nk1PEfK_B-5" value="iniciar um loop que vai de 1 a 20" style="rounded=0;whiteSpace=wrap;html=1;" vertex="1" parent="1">
          <mxGeometry x="330" y="450" width="120" height="60" as="geometry" />
        </mxCell>
        <mxCell id="0RduwKie-26nk1PEfK_B-23" style="edgeStyle=orthogonalEdgeStyle;rounded=0;orthogonalLoop=1;jettySize=auto;html=1;exitX=0.5;exitY=1;exitDx=0;exitDy=0;" edge="1" parent="1" source="0RduwKie-26nk1PEfK_B-6" target="0RduwKie-26nk1PEfK_B-9">
          <mxGeometry relative="1" as="geometry" />
        </mxCell>
        <mxCell id="0RduwKie-26nk1PEfK_B-6" value=" Atualizar a div que vai receber os resultados e mostrar na tela" style="rounded=0;whiteSpace=wrap;html=1;" vertex="1" parent="1">
          <mxGeometry x="330" y="530" width="120" height="60" as="geometry" />
        </mxCell>
        <mxCell id="0RduwKie-26nk1PEfK_B-14" style="edgeStyle=orthogonalEdgeStyle;rounded=0;orthogonalLoop=1;jettySize=auto;html=1;exitX=0.5;exitY=1;exitDx=0;exitDy=0;exitPerimeter=0;" edge="1" parent="1" source="0RduwKie-26nk1PEfK_B-9" target="0RduwKie-26nk1PEfK_B-10">
          <mxGeometry relative="1" as="geometry" />
        </mxCell>
        <mxCell id="0RduwKie-26nk1PEfK_B-9" value="Verificar &lt;br&gt;se o&lt;br&gt;&amp;nbsp;loop atingiu o final (20)." style="strokeWidth=2;html=1;shape=mxgraph.flowchart.decision;whiteSpace=wrap;" vertex="1" parent="1">
          <mxGeometry x="340" y="610" width="100" height="100" as="geometry" />
        </mxCell>
        <mxCell id="0RduwKie-26nk1PEfK_B-20" style="edgeStyle=orthogonalEdgeStyle;rounded=0;orthogonalLoop=1;jettySize=auto;html=1;exitX=0.5;exitY=1;exitDx=0;exitDy=0;" edge="1" parent="1" source="0RduwKie-26nk1PEfK_B-10" target="0RduwKie-26nk1PEfK_B-11">
          <mxGeometry relative="1" as="geometry" />
        </mxCell>
        <mxCell id="0RduwKie-26nk1PEfK_B-10" value="mostrar resultado e finalizar" style="rounded=0;whiteSpace=wrap;html=1;" vertex="1" parent="1">
          <mxGeometry x="330" y="730" width="120" height="60" as="geometry" />
        </mxCell>
        <mxCell id="0RduwKie-26nk1PEfK_B-11" value="fim" style="ellipse;whiteSpace=wrap;html=1;" vertex="1" parent="1">
          <mxGeometry x="330" y="810" width="120" height="80" as="geometry" />
        </mxCell>
      </root>
    </mxGraphModel>
  </diagram>
</mxfile>
